<mxfile host="65bd71144e">
    <diagram id="Q3NNFCsJSN7firZNcyVt" name="Page-1">
        <mxGraphModel dx="274" dy="779" grid="1" gridSize="10" guides="1" tooltips="1" connect="1" arrows="1" fold="1" page="1" pageScale="1" pageWidth="850" pageHeight="1100" math="0" shadow="0">
            <root>
                <mxCell id="0"/>
                <mxCell id="1" parent="0"/>
                <mxCell id="2" value="REDIS&lt;br&gt;&lt;br&gt;&lt;br&gt;systems&lt;br&gt;bodies&lt;br&gt;users&lt;br&gt;&lt;br&gt;" style="shape=cylinder3;whiteSpace=wrap;html=1;boundedLbl=1;backgroundOutline=1;size=15;" parent="1" vertex="1">
                    <mxGeometry x="160" y="20" width="390" height="310" as="geometry"/>
                </mxCell>
                <mxCell id="3" value="SPACE BUILD SERVER" style="ellipse;whiteSpace=wrap;html=1;aspect=fixed;fillColor=#d80073;fontColor=#ffffff;strokeColor=#A50040;" parent="1" vertex="1">
                    <mxGeometry x="230" y="410" width="210" height="210" as="geometry"/>
                </mxCell>
                <mxCell id="5" value="system:&amp;lt;id&amp;gt;" style="whiteSpace=wrap;html=1;aspect=fixed;" parent="1" vertex="1">
                    <mxGeometry x="400" y="70" width="110" height="110" as="geometry"/>
                </mxCell>
                <mxCell id="6" value="PLAYER" style="rounded=0;whiteSpace=wrap;html=1;" parent="1" vertex="1">
                    <mxGeometry x="40" y="710" width="120" height="250" as="geometry"/>
                </mxCell>
                <mxCell id="7" value="&lt;div style=&quot;&quot;&gt;&lt;span style=&quot;background-color: initial;&quot;&gt;SERVER&lt;/span&gt;&lt;/div&gt;" style="rounded=1;whiteSpace=wrap;html=1;align=center;" parent="1" vertex="1">
                    <mxGeometry x="287.5" y="690" width="120" height="330" as="geometry"/>
                </mxCell>
                <mxCell id="8" value="" style="endArrow=classic;html=1;exitX=1.011;exitY=0.097;exitDx=0;exitDy=0;exitPerimeter=0;" parent="1" source="6" target="12" edge="1">
                    <mxGeometry width="50" height="50" relative="1" as="geometry">
                        <mxPoint x="220" y="880" as="sourcePoint"/>
                        <mxPoint x="270" y="830" as="targetPoint"/>
                    </mxGeometry>
                </mxCell>
                <mxCell id="9" value="Login" style="edgeLabel;html=1;align=center;verticalAlign=middle;resizable=0;points=[];" parent="8" vertex="1" connectable="0">
                    <mxGeometry x="0.2038" y="1" relative="1" as="geometry">
                        <mxPoint as="offset"/>
                    </mxGeometry>
                </mxCell>
                <mxCell id="10" value="" style="endArrow=classic;html=1;exitX=0;exitY=0.5;exitDx=0;exitDy=0;" parent="1" source="13" target="6" edge="1">
                    <mxGeometry width="50" height="50" relative="1" as="geometry">
                        <mxPoint x="290" y="800" as="sourcePoint"/>
                        <mxPoint x="230" y="830" as="targetPoint"/>
                    </mxGeometry>
                </mxCell>
                <mxCell id="15" value="GAME INFO" style="edgeLabel;html=1;align=center;verticalAlign=middle;resizable=0;points=[];fontSize=7;" parent="10" vertex="1" connectable="0">
                    <mxGeometry x="0.1126" y="2" relative="1" as="geometry">
                        <mxPoint as="offset"/>
                    </mxGeometry>
                </mxCell>
                <mxCell id="12" value="&lt;font style=&quot;font-size: 7px;&quot;&gt;New player ?&lt;br&gt;-&amp;gt; system creation&lt;/font&gt;" style="shape=hexagon;perimeter=hexagonPerimeter2;whiteSpace=wrap;html=1;fixedSize=1;" parent="1" vertex="1">
                    <mxGeometry x="295" y="700" width="97.5" height="60" as="geometry"/>
                </mxCell>
                <mxCell id="13" value="Ou est le joueur ?" style="shape=hexagon;perimeter=hexagonPerimeter2;whiteSpace=wrap;html=1;fixedSize=1;fontSize=7;" parent="1" vertex="1">
                    <mxGeometry x="302.5" y="810" width="105" height="20" as="geometry"/>
                </mxCell>
                <mxCell id="14" value="" style="shape=flexArrow;endArrow=classic;html=1;fontSize=7;entryX=0.375;entryY=0;entryDx=0;entryDy=0;" parent="1" source="12" target="13" edge="1">
                    <mxGeometry width="50" height="50" relative="1" as="geometry">
                        <mxPoint x="250" y="820" as="sourcePoint"/>
                        <mxPoint x="300" y="770" as="targetPoint"/>
                    </mxGeometry>
                </mxCell>
            </root>
        </mxGraphModel>
    </diagram>
</mxfile>